<svg width="1096" height="267" fill="none" xmlns="http://www.w3.org/2000/svg"><path d="M125.977 69.507c0 .65-.033 1.692-.098 3.125a70.866 70.866 0 0 0-.098 3.027c0 4.362.196 8.984.586 13.867.391 4.883 1.009 10.254 1.856 16.113l-9.668 1.661c-1.042-9.7-5.176-17.22-12.403-22.559-7.226-5.404-16.764-8.106-28.613-8.106-15.104 0-26.823 4.72-35.156 14.16-8.268 9.376-12.403 22.657-12.403 39.844 0 18.555 4.688 33.334 14.063 44.336 9.44 11.003 22.038 16.504 37.793 16.504 9.896 0 18.327-2.246 25.293-6.738 7.031-4.492 12.728-11.328 17.09-20.508l8.593 4.004c-2.604 5.143-4.882 10.189-6.835 15.137a147.646 147.646 0 0 0-4.981 14.551c-7.878 3.19-15.592 5.599-23.144 7.226-7.487 1.693-14.714 2.539-21.68 2.539-22.656 0-41.016-6.706-55.078-20.117C7.03 174.162 0 156.649 0 135.034 0 113.68 7.357 96.102 22.07 82.3c14.78-13.868 33.496-20.801 56.153-20.801 8.138 0 16.113.65 23.925 1.953 7.878 1.302 15.821 3.32 23.829 6.055Zm84.668 17.968-21.29 54.004c2.474.065 5.079.13 7.813.196h23.633c2.995-.066 5.794-.131 8.398-.196l-18.554-54.004Zm-5.372-23.437h23.829c9.375 27.474 18.294 52.734 26.757 75.781 8.529 22.982 14.486 38.281 17.871 45.899 1.433 3.45 3.223 5.924 5.372 7.421 2.213 1.433 5.143 2.149 8.789 2.149h2.148v8.789c-8.268-.391-14.616-.651-19.043-.781-4.427-.131-8.138-.196-11.133-.196-2.864 0-6.575.065-11.133.196-4.557.13-11.165.39-19.824.781v-8.789h1.758c5.143 0 8.626-.586 10.449-1.758 1.823-1.172 2.735-3.255 2.735-6.25 0-.911-.131-1.986-.391-3.223-.195-1.237-.651-2.962-1.367-5.175l-8.008-23.633c-3.711-.065-8.594-.13-14.648-.196-6.055-.13-9.831-.195-11.329-.195-2.799 0-8.431.098-16.894.293-3.06.065-5.436.098-7.129.098l-.391.976c-6.38 15.56-9.57 25.391-9.57 29.493 0 3.385.944 5.826 2.832 7.324 1.953 1.497 5.143 2.246 9.57 2.246h1.758v8.789c-7.422-.391-13.183-.651-17.285-.781-4.101-.131-7.487-.196-10.156-.196-2.214 0-5.143.065-8.789.196-3.581.13-8.822.39-15.723.781v-8.789c4.688 0 8.431-.814 11.231-2.442 2.799-1.627 5.175-4.362 7.129-8.203 2.799-5.078 9.114-19.27 18.945-42.578 9.831-23.307 20.377-49.316 31.64-78.027Zm96.875.684a836.11 836.11 0 0 0 15.625.78c4.948.13 9.343.196 13.184.196 3.971 0 8.398-.065 13.281-.195 4.948-.196 10.645-.456 17.09-.781v8.788c-.39 0-.944-.032-1.66-.097s-1.204-.098-1.465-.098c-5.469 0-9.18 1.628-11.133 4.883-1.953 3.255-2.929 10.612-2.929 22.07 0 1.693.032 4.753.097 9.18s.098 8.04.098 10.84l.195 68.555.586.097c8.399.521 14.746.781 19.043.781 16.341 0 27.051-1.692 32.129-5.078 5.078-3.385 9.245-9.83 12.5-19.336l8.984 2.735a296.165 296.165 0 0 0-5.468 17.871 281.82 281.82 0 0 0-4.102 18.164 2270.692 2270.692 0 0 0-32.129-.879c-9.896-.195-18.945-.293-27.148-.293-8.138 0-16.341.098-24.61.293-8.203.195-16.373.488-24.511.879v-8.594h2.734c3.516 0 6.218-.358 8.106-1.074 1.888-.716 3.255-1.888 4.101-3.516 1.823-3.58 2.8-16.959 2.93-40.136.065-2.995.097-5.274.097-6.836l.196-21.289c0-2.865.032-6.608.097-11.231.066-4.687.098-7.943.098-9.765 0-11.72-.976-19.369-2.93-22.95-1.888-3.58-5.501-5.37-10.839-5.37h-2.247v-8.594Zm361.625 69.14c3.451.195 6.381.358 8.789.488 2.409.065 4.428.098 6.055.098 2.018 0 4.167-.033 6.445-.098 2.279-.13 4.655-.293 7.129-.488 5.664-3.646 9.799-7.78 12.403-12.402 2.669-4.688 4.004-10.157 4.004-16.407 0-8.138-2.767-14.713-8.301-19.726-5.469-5.078-12.761-7.617-21.875-7.617-2.8 0-5.371.097-7.715.293a76.156 76.156 0 0 0-6.738.879c-.065 7.096-.13 14.518-.196 22.265v32.715Zm-43.75 61.621c.521.065 1.01.13 1.465.195h2.344c5.339 0 8.919-1.757 10.742-5.273 1.888-3.516 2.832-12.825 2.832-27.93v-17.578l.391-21.875c.065-4.622.098-9.212.098-13.769.065-4.558.097-10.026.097-16.406 0-8.204-1.009-13.51-3.027-15.918-1.953-2.41-5.664-3.614-11.133-3.614h-2.051v-8.593c6.966.325 12.728.585 17.285.78 4.558.13 8.529.196 11.914.196 4.818 0 10.808-.163 17.969-.488 7.162-.326 11.979-.488 14.453-.488 16.146 0 28.874 3.352 38.184 10.058 9.31 6.706 13.965 15.82 13.965 27.344 0 7.682-2.344 14.453-7.031 20.312-4.623 5.86-11.589 10.873-20.899 15.039l19.141 26.953c9.114 14.193 15.755 23.112 19.922 26.758 4.231 3.646 8.724 5.469 13.476 5.469.261 0 .619-.032 1.074-.098.521-.065.912-.097 1.172-.097v8.203c-3.971.325-7.422.553-10.351.683-2.93.196-5.502.293-7.715.293-7.943 0-14.16-.878-18.652-2.636-4.493-1.758-8.529-4.785-12.11-9.082-1.693-2.019-5.859-8.496-12.5-19.434-6.64-11.003-12.467-20.41-17.48-28.223a932.67 932.67 0 0 1-10.743.293c-3.125.066-6.152.098-9.082.098v25.977c0 9.961.977 16.243 2.93 18.847 1.953 2.539 5.794 3.809 11.524 3.809h2.734v8.789a439.72 439.72 0 0 0-16.016-.684 449.546 449.546 0 0 0-16.406-.293c-1.823 0-4.525.065-8.105.196-3.516.065-10.319.325-20.411.781v-8.594ZM771.195 64.722c6.381.39 12.207.683 17.481.878 5.338.196 10.091.293 14.258.293 4.101 0 8.691-.097 13.769-.293 5.143-.195 10.84-.488 17.09-.878v8.788h-2.051c-4.492 0-7.715.456-9.668 1.368-1.888.911-3.255 2.571-4.101 4.98-.716 2.018-1.237 5.99-1.563 11.914-.325 5.925-.488 16.569-.488 31.934v40.137c0 9.179.163 15.559.488 19.14.391 3.516 1.042 6.087 1.953 7.715.912 1.628 2.442 2.8 4.59 3.516 2.149.716 5.339 1.074 9.57 1.074h2.442v8.789c-7.162-.391-13.444-.684-18.848-.879-5.403-.195-9.993-.293-13.769-.293-3.451 0-7.91.098-13.379.293-5.469.195-11.817.488-19.043.879v-8.789h2.441c4.362 0 7.617-.358 9.766-1.074 2.148-.716 3.613-1.888 4.394-3.516.977-1.823 1.661-4.785 2.051-8.887.391-4.166.586-11.686.586-22.558v-57.129c0-8.073-.195-13.705-.586-16.895-.325-3.255-.944-5.664-1.855-7.226-.847-1.563-2.344-2.702-4.493-3.418-2.083-.716-5.11-1.075-9.082-1.075h-1.953v-8.788Zm172.364 4.198v2.15c0 4.752.26 9.635.781 14.648.586 4.947 1.432 10.058 2.539 15.332l-10.156 1.66c-1.107-8.464-4.265-14.844-9.473-19.14-5.143-4.298-12.24-6.446-21.289-6.446-8.399 0-14.974 1.66-19.727 4.98-4.752 3.32-7.129 7.91-7.129 13.77 0 3.906.977 7.291 2.93 10.156 1.953 2.8 4.981 5.273 9.082 7.422 3.19 1.693 8.692 3.841 16.504 6.445 7.878 2.604 13.705 4.655 17.481 6.153 8.528 3.515 14.908 8.105 19.14 13.769 4.297 5.664 6.446 12.402 6.446 20.215 0 14.193-5.437 25.521-16.309 33.984-10.872 8.464-25.619 12.696-44.238 12.696-6.12 0-12.305-.619-18.555-1.856a104.316 104.316 0 0 1-18.262-5.176c0-.716.033-1.66.098-2.832.065-1.237.098-2.148.098-2.734 0-5.013-.326-10.124-.977-15.332-.586-5.208-1.53-10.579-2.832-16.113l10.644-2.637c2.474 11.979 6.446 20.345 11.915 25.098 5.533 4.752 13.737 7.129 24.609 7.129 8.789 0 15.723-1.954 20.801-5.86 5.078-3.906 7.617-9.147 7.617-15.723 0-9.375-8.952-17.22-26.856-23.535-3.971-1.367-6.998-2.441-9.082-3.222-12.369-4.623-21.256-9.994-26.66-16.114-5.338-6.119-8.008-13.769-8.008-22.949 0-12.63 4.883-22.819 14.649-30.566 9.765-7.748 22.689-11.621 38.769-11.621 5.599 0 11.263.52 16.993 1.562 5.794.977 11.946 2.54 18.457 4.688Zm52.832 126.368H1000c4.37 0 7.56-.456 9.57-1.367 2.02-.977 3.52-2.67 4.5-5.078.65-1.823 1.1-6.25 1.36-13.282.26-7.031.39-20.052.39-39.062v-55.86h-16.793c-10.221 0-17.22 1.433-20.996 4.297-3.776 2.865-6.38 8.366-7.812 16.504l-9.18-1.953c1.497-6.445 2.637-12.598 3.418-18.457a163.062 163.062 0 0 0 1.563-17.48c2.473.846 5.957 1.464 10.449 1.855 4.492.326 12.077.488 22.754.488h58.597c11.98 0 20.31-.162 25-.488 4.75-.39 8.23-1.042 10.45-1.953v3.027c0 5.078.19 10.352.58 15.82.46 5.404 1.11 11.133 1.95 17.188l-8.78 1.367c-1.11-7.942-3.36-13.281-6.74-16.015-3.39-2.8-10.06-4.2-20.02-4.2h-17.19c-.19 10.417-.33 20.671-.39 30.762-.07 10.091-.1 21.843-.1 35.254v18.262c0 8.594.2 14.616.59 18.066.39 3.451 1.01 6.022 1.85 7.715.98 1.628 2.51 2.8 4.59 3.516 2.09.716 5.02 1.074 8.79 1.074h3.42v8.789c-1.63-.065-4.04-.163-7.23-.293-12.76-.586-21.48-.879-26.17-.879-3.38 0-7.75.098-13.08.293-5.28.195-11.59.488-18.949.879v-8.789Z" fill="#fff"/><path d="M529.38 132.453c0-20.533-22.234-33.436-39.925-23.17-17.691 10.267-17.691 36.073 0 46.34 17.691 10.266 39.925-2.637 39.925-23.17Zm60.944-49.318C607.937-1.06 569.187-27.48 503.312 33.464c-62-58.125-106.152-39.807-87.364 49.318-86.637 26.119-80.897 75.285.704 100.399-18.67 82.08 16.205 112.023 86.66 50.022 68.341 61.296 104.612 32.597 85.955-50.374 89.008-30.179 81.023-73.861 1.057-99.694Zm-11.977-3.17c-13.964-3.15-27.475-5.443-41.217-6.694-7.24-10.586-15.673-21.161-25.363-31 52.815-50.66 83.943-34.83 66.58 37.694Zm-136.33 68.692c5.224 11.155 12.094 21.371 17.261 29.943-8.414-.86-17.477-2.167-27.126-3.875a766.157 766.157 0 0 1 9.865-26.068Zm-.706-30.296c-3.844-9.226-7.35-18.13-10.216-26.42 9.96-2.065 19.721-3.94 28.182-4.58-6.298 9.893-12.279 20.237-17.966 31Zm7.398 15.5c8.614-17.252 17.727-33.627 27.829-48.261 17.926-1.031 35.662-.94 53.194.352 9.833 13.701 19.01 30.076 27.83 47.909-6.6 13.64-15.972 29.358-26.773 46.149-18.034 1.365-36.525 1.176-55.307 0-9.52-14.584-18.46-29.946-26.773-46.149Zm115.546 14.796a431.71 431.71 0 0 1 9.511 25.364 266.017 266.017 0 0 1-26.773 4.227c6.032-9.345 11.754-19.268 17.262-29.591Zm-17.262-61.295c9.605 1.314 18.884 2.956 27.83 4.931a283.354 283.354 0 0 1-10.216 26.068c-5.453-10.754-11.307-21.104-17.614-31ZM519.869 71.86c-10.972-.43-22.133-.417-33.467 0 4.962-6.526 10.492-13.342 16.558-20.432 5.91 6.38 11.511 13.247 16.909 20.432Zm-25.364-29.59c-9.691 9.838-18.123 20.061-25.364 30.647-13.742 1.251-27.605 3.544-41.568 6.693-16.557-73.625 14.117-88 66.932-37.34Zm-74.682 129.285c-73.39-22.076-69.868-56.481-.705-76.795a361.748 361.748 0 0 0 15.148 38.398c-5.63 12.949-10.616 26.248-14.443 38.397Zm9.159 14.796c12.447 3.053 25.637 4.518 39.455 5.989 8.313 11.732 16.923 22.64 26.068 32.056-53.78 51.55-83.761 32.82-65.523-38.045Zm73.978 29.239c-6.373-6.599-12.323-14.077-17.966-22.193 12.578.265 24.726.294 36.284 0a188.556 188.556 0 0 1-18.318 22.193Zm8.807 8.807c9.812-10.661 18.462-21.469 26.068-32.409 12.981-.955 26.133-2.95 39.455-5.988 18.403 75.429-15.012 86.567-65.523 38.397Zm74.329-53.545c-3.773-12.149-8.538-24.744-14.09-37.693a358.052 358.052 0 0 0 14.795-38.046c67.52 20.432 72.921 53.076-.705 75.739Z" fill="url(#Vector__a)"/><path d="M530 133c0 14.912-12.088 27-27 27s-27-12.088-27-27 12.088-27 27-27 27 12.088 27 27Z" fill="#fff"/><defs><linearGradient id="Vector__a" x1="393.188" y1="23.077" x2="602.688" y2="266.077" gradientUnits="userSpaceOnUse"><stop stop-color="#A85B96"/><stop offset="1" stop-color="#E9A1D8"/></linearGradient></defs></svg>